<?xml version="1.0" standalone="no"?>
<!DOCTYPE svg PUBLIC "-//W3C//DTD SVG 20010904//EN"
 "http://www.w3.org/TR/2001/REC-SVG-20010904/DTD/svg10.dtd">
<svg version="1.0" xmlns="http://www.w3.org/2000/svg"
 width="225.000000pt" height="225.000000pt" viewBox="0 0 225.000000 225.000000"
 preserveAspectRatio="xMidYMid meet">
<metadata>
Created by potrace 1.15, written by Peter Selinger 2001-2017
</metadata>
<g transform="translate(0.000000,225.000000) scale(0.100000,-0.100000)"
fill="#000000" stroke="none">
<path d="M0 2140 l0 -110 109 0 c75 0 111 -4 118 -12 5 -7 98 -201 207 -430
l197 -418 -80 -137 c-86 -149 -107 -208 -97 -275 14 -90 85 -168 172 -188 21
-5 344 -10 717 -10 l677 0 0 115 0 115 -660 0 c-622 0 -660 1 -660 18 -1 9 21
58 47 109 l48 92 451 3 451 3 48 30 c47 29 56 43 265 420 119 215 222 399 230
411 18 29 5 91 -27 120 l-26 24 -857 0 -857 0 -50 113 -51 112 -186 3 -186 2
0 -110z"/>
<path d="M600 437 c-19 -6 -55 -32 -80 -57 -93 -93 -93 -217 0 -311 179 -180
466 34 350 261 -49 94 -164 140 -270 107z"/>
<path d="M1727 436 c-95 -35 -147 -110 -147 -212 1 -79 31 -139 93 -181 195
-132 429 78 319 288 -49 94 -168 141 -265 105z"/>
</g>
</svg>
