<svg viewBox="0 0 195 247">
  <path d="M226.3,45.557L185.836,7.468A5.454,5.454,0,0,0,182.1,5.99H56.935C43.736,5.99,33,16.223,33,28.8V230.2c0,12.579,10.736,22.814,23.935,22.814H204.066c13.2,0,23.934-10.235,23.934-22.814V49.477a5.376,5.376,0,0,0-1.7-3.92m-13.676,2H182.4V19.11ZM204.066,242.21H56.935c-7.206,0-13.065-5.392-13.065-12.015V28.8c0-6.626,5.859-12.015,13.065-12.015H171.529V52.962a5.42,5.42,0,0,0,5.436,5.4H217.13V230.2c0,6.623-5.863,12.015-13.064,12.015" transform="translate(-33 -6)"/>
  <path d="M188.9,92.114H72.092a5.4,5.4,0,1,1,0-10.8H188.9a5.4,5.4,0,1,1,0,10.8m0,30.742H72.092a5.4,5.4,0,1,1,0-10.8H188.9a5.4,5.4,0,1,1,0,10.8m0,30.742H72.092a5.4,5.4,0,1,1,0-10.8H188.9a5.4,5.4,0,1,1,0,10.8m0,30.742H72.092a5.4,5.4,0,1,1,0-10.8H188.9a5.4,5.4,0,1,1,0,10.8m0,30.744H72.092a5.4,5.4,0,1,1,0-10.8H188.9a5.4,5.4,0,1,1,0,10.8" transform="translate(-33 -6)" opacity="0.5"/>
</svg>
