<svg xmlns="http://www.w3.org/2000/svg" viewBox="0 0 18.447 18.723">
  <defs>
    <style>
      .cls-1 {
        fill: #fff;
      }
    </style>
  </defs>
  <path id="instagram" class="cls-1" d="M16.08,18.723H2.367A2.333,2.333,0,0,1,0,16.32V2.4A2.333,2.333,0,0,1,2.367,0H16.08a2.333,2.333,0,0,1,2.367,2.4V16.32A2.333,2.333,0,0,1,16.08,18.723ZM1.677,7.66v8.556a.791.791,0,0,0,.774.805H16a.79.79,0,0,0,.773-.805V7.66H15.058A6.258,6.258,0,0,1,13.6,13.711,5.981,5.981,0,0,1,9.26,15.5a5.036,5.036,0,0,1-4.02-1.787A6.732,6.732,0,0,1,3.844,9.4,7.833,7.833,0,0,1,4.216,7.66Zm7.966-1.7a3.83,3.83,0,1,0,3.773,3.83A3.806,3.806,0,0,0,9.643,5.958ZM13.321,1.7a.761.761,0,0,0-.743.775V4.331a.761.761,0,0,0,.743.775h1.868a.76.76,0,0,0,.743-.775V2.477a.76.76,0,0,0-.743-.775Z" transform="translate(0 0)"/>
</svg>
